<svg xmlns="http://www.w3.org/2000/svg" viewBox="0 0 512 512"><defs><style>.a{fill:#b320b7;}</style></defs><path class="a" d="M317.11,315.79a67,67,0,0,0-11.36,33.29,39.79,39.79,0,0,0,23.41-29.54A42.51,42.51,0,0,1,317.11,315.79Z"/><path class="a" d="M295.24,363.68a51.13,51.13,0,0,1-44.82-83.05,5.68,5.68,0,0,1,8.86,7,39.77,39.77,0,0,0,35.11,64.65,77.14,77.14,0,0,1,13.69-43.23c-14.43-15.11-24.65-43.18-76.86-64.93C184.52,224.5,161,197,150.44,180.87a61.58,61.58,0,0,0-12,33.52A89,89,0,0,0,140,234.67c3.92,26.93,1.82,34.94-13.8,56.81A46,46,0,0,0,119.76,302c0,2.33,3.52,5.28,9.77,7.5a5.67,5.67,0,0,1,2.1,9.37c-4,4-9.82,10.11-5.68,14.37,0,0,.68.68,1,.57a5.68,5.68,0,0,1,3.29,10.62c1,3.75,8.07,3.35,13.29,9.32,8.41,9.54,1.48,22.72,5,29.48a9.92,9.92,0,0,0,8.52,4.15,40.74,40.74,0,0,0,13.41-3.12,248.35,248.35,0,0,0,60.45-29.77,5.68,5.68,0,1,1,6.53,9.2,183.43,183.43,0,0,1-20.85,12.84q4.42,13.35,0,38.8h104.7c-13.64-17.1-23.18-31.93-26.08-51.64Z"/><path class="a" d="M314.27,153.49c-10.95-2.69-21.24-4.75-31-6.63l7.24-11.23a12.74,12.74,0,1,0-7.13-4.59l-9.09,14.09c-25.69-4.94-47.93-9.68-69.77-23.51a12.34,12.34,0,0,1,2.73-7.61c4.94-6.48,20.73-17.33,71.57-17.33,61.07,0,103.51,27.44,108.23,41.53a55.84,55.84,0,0,1,.68,26.64A330.15,330.15,0,0,1,314.27,153.49Z"/><path class="a" d="M180.49,147.81c5.74,4.75,23.72,19.14,45.56,34.73l-5.27,7.22a12.75,12.75,0,1,0,6.85,5l5.35-7.32c17.73,12.38,37.3,24.95,54.65,33.6h0c26.35,13.2,45.19,22.6,60.94,28.28l-9.32,11.13a12.74,12.74,0,1,0,6.5,5.44l11.5-13.74a87.51,87.51,0,0,0,19.8,3.55c3.29,7.95,8.52,26.7-6,41.52s-23.23,15.57-45.44,9.89c-18.69-4.94-21.93-45.45-90.1-73.85C193,215.52,166.06,188.2,154.7,165.48A45,45,0,0,1,180.49,147.81Z"/><path class="a" d="M322.2,225.5l11.1-15.22a12.76,12.76,0,1,0-6.85-5l-12,16.45c-6.63-3.25-13.82-6.85-21.71-10.81-38.57-19.48-90.38-59.93-103.67-70.61a15.94,15.94,0,0,1,8.86-9.09c34.71,22.27,69.14,22.27,113.62,33.63a334.81,334.81,0,0,0,76.63,11.36c11.42,42.78-4.37,63.12-9.32,68.17C363.65,243.79,347.19,237.5,322.2,225.5Z"/></svg>