<svg xmlns="http://www.w3.org/2000/svg" viewBox="0 0 489.7 180.31"><defs><style>.a{fill:#fff;}.b{fill:#b320b7;}</style></defs><path class="a" d="M205,43.49c0,6.51-5.57,10.66-15.55,10.66a31.89,31.89,0,0,1-14.39-3.26V44.37h.68A32.31,32.31,0,0,0,189.81,48c4.82,0,7.06-1.7,7.06-4.28,0-3.26-3.26-3.73-7.2-4.55-10-1.83-14.59-4.55-14.59-11.07,0-7,6.31-10.11,14-10.11a31.77,31.77,0,0,1,13.51,2.85v6.38H202a28,28,0,0,0-12.76-3.46c-3.74,0-6,1.22-6,3.8,0,3.26,3.2,3.67,9.51,4.89C199.79,33.85,205,36.29,205,43.49Z"/><path class="a" d="M211.6,5.33h8.08V23.12h.55c1.83-2.65,5-5.16,10.66-5.16,9.23,0,14.32,5.77,14.32,14.46V53.13h-8.35V34.25c0-5.63-3.19-8.82-8.28-8.82-5.7,0-8.56,4.61-8.56,9.77V53.13H211.6Z"/><path class="a" d="M285.27,38.73h-25.8c1.09,6.52,6.52,8.83,12.29,8.83a24.88,24.88,0,0,0,11.54-2.51H284v6c-3.87,2.24-8.08,3.12-13.44,3.12-11.34,0-18.88-7.06-18.88-18.12,0-11.48,7.88-18.2,17.79-18.2,10.19,0,16.64,6.38,16.64,15.41A16.5,16.5,0,0,1,285.27,38.73ZM279,32.35c-.2-4.62-3.53-8.28-9.5-8.28-4.75,0-9,2.71-10,9H279Z"/><path class="a" d="M208.28,100.22h-25.8c1.08,6.51,6.52,8.82,12.29,8.82a24.79,24.79,0,0,0,11.54-2.51H207v6c-3.87,2.24-8.08,3.13-13.45,3.13-11.33,0-18.87-7.06-18.87-18.13,0-11.48,7.88-18.2,17.79-18.2,10.18,0,16.63,6.38,16.63,15.41A16.55,16.55,0,0,1,208.28,100.22ZM202,93.83c-.2-4.61-3.53-8.28-9.5-8.28-4.76,0-9,2.72-10.05,9H202Z"/><path class="a" d="M215.81,80.46h6.73l.81,4.62h.54c1.9-3,5.37-5.64,11.21-5.64,9.23,0,14.32,5.77,14.32,14.46v20.71h-8.35V95.73c0-5.63-3.19-8.82-8.28-8.82-5.71,0-8.56,4.62-8.56,9.78v17.92h-8.42Z"/><path class="a" d="M291.52,84.8h-5a15.93,15.93,0,0,1,5,11.14,15.69,15.69,0,0,1-7,13.31c4.28,1.56,6.79,4.41,6.79,8.75,0,6.86-5.29,12.23-17.51,12.23A36.57,36.57,0,0,1,258.32,127V119.3h.61c3.26,2,9.09,3.66,14.87,3.66,6.17,0,9.23-2.31,9.23-5.57,0-4-3.53-5-9.23-5-10.8,0-17.72-6.32-17.72-16.43s7.53-16.57,17.65-16.57h17.79ZM273.8,105.51a9.78,9.78,0,0,0,10-9.57c0-6.32-5.23-9.57-10-9.57-5.1,0-10.05,3.39-10.05,9.57S268.16,105.51,273.8,105.51Z"/><path class="a" d="M298.17,69.32a5.18,5.18,0,0,1,5.09-5.16,5.13,5.13,0,1,1,0,10.26A5.09,5.09,0,0,1,298.17,69.32Zm.88,11.14h8.42v34.15h-8.42Z"/><path class="a" d="M316.43,80.46h6.73l.81,4.62h.54c1.9-3,5.37-5.64,11.21-5.64C345,79.44,350,85.21,350,93.9v20.71h-8.35V95.73c0-5.63-3.19-8.82-8.28-8.82-5.71,0-8.56,4.62-8.56,9.78v17.92h-8.42Z"/><path class="a" d="M390.1,100.22H364.3c1.09,6.51,6.52,8.82,12.29,8.82a24.76,24.76,0,0,0,11.54-2.51h.68v6c-3.87,2.24-8.08,3.13-13.44,3.13-11.34,0-18.88-7.06-18.88-18.13,0-11.48,7.88-18.2,17.79-18.2,10.19,0,16.64,6.38,16.64,15.41A16.56,16.56,0,0,1,390.1,100.22Zm-6.25-6.39c-.2-4.61-3.53-8.28-9.5-8.28-4.75,0-9,2.72-10.05,9h19.55Z"/><path class="a" d="M429.21,100.22h-25.8c1.08,6.51,6.52,8.82,12.29,8.82a24.79,24.79,0,0,0,11.54-2.51h.68v6c-3.87,2.24-8.08,3.13-13.44,3.13-11.34,0-18.88-7.06-18.88-18.13,0-11.48,7.88-18.2,17.79-18.2,10.18,0,16.63,6.38,16.63,15.41A16.55,16.55,0,0,1,429.21,100.22ZM423,93.83c-.2-4.61-3.53-8.28-9.5-8.28-4.76,0-9,2.72-10,9H423Z"/><path class="a" d="M436.74,80.46h6.45l.89,4.62h.47a12.38,12.38,0,0,1,10.32-5.64H456v7.88h-1.16c-5.29,0-10,3.39-10,10.66v16.63h-8.15Z"/><path class="a" d="M489.7,105c0,6.52-5.56,10.66-15.55,10.66a31.89,31.89,0,0,1-14.39-3.26v-6.52h.68a32.31,32.31,0,0,0,14.05,3.6c4.82,0,7.06-1.7,7.06-4.28,0-3.26-3.25-3.73-7.19-4.55-10-1.83-14.6-4.55-14.6-11.06,0-7,6.31-10.12,14.06-10.12,4.95,0,10.25,1.15,13.51,2.85v6.38h-.68a28.08,28.08,0,0,0-12.77-3.46c-3.73,0-6,1.22-6,3.8,0,3.26,3.19,3.67,9.5,4.89C484.47,95.33,489.7,97.77,489.7,105Z"/><path class="a" d="M174.6,162.52c0-10.32,7.13-18.46,17.79-18.46a12.67,12.67,0,0,1,11,5.56h.54V131.5h8.15v36.8c.07,2.51,0,4.14,2,4.14a3.46,3.46,0,0,0,1.29-.27h.68l.06,7.19a10,10,0,0,1-4.21.95c-5.43,0-6.17-3-6.58-6.31h-.54c-2.18,3.6-6.66,6.31-12.43,6.31C181.73,180.31,174.6,172.44,174.6,162.52Zm29.47-.27a10.73,10.73,0,0,0-10.8-10.79c-5.9,0-10.52,4.34-10.52,10.79A10.38,10.38,0,0,0,193.34,173,10.75,10.75,0,0,0,204.07,162.25Z"/><path class="a" d="M220,162.52c0-10.32,7.13-18.46,17.79-18.46,6.66,0,10.25,3.12,12.29,6.11h.54l.82-5h6V168.3c.07,2.51,0,4.14,2,4.14a3.46,3.46,0,0,0,1.29-.27h.68l.07,7.19a10.07,10.07,0,0,1-4.21.95c-5.44,0-6.18-3-6.59-6.31h-.54c-2.18,3.6-6.66,6.31-12.43,6.31C227.15,180.31,220,172.44,220,162.52Zm29.47-.27a10.73,10.73,0,0,0-10.8-10.79c-5.9,0-10.52,4.34-10.52,10.79A10.39,10.39,0,0,0,238.76,173,10.75,10.75,0,0,0,249.49,162.25Z"/><path class="a" d="M289.35,179.16a19.81,19.81,0,0,1-6.86,1.15c-8.49,0-13.38-4.61-13.38-15.21v-13H264v-6.93h5.7l1.36-7.87h6.18v7.87H288v6.93H277.33v13.1c0,5.23,2.1,7.68,6.58,7.68a11,11,0,0,0,4.69-1h.68Z"/><path class="a" d="M292.13,162.52c0-10.32,7.13-18.46,17.79-18.46,6.65,0,10.25,3.12,12.29,6.11h.54l.81-5h6.05V168.3c.07,2.51,0,4.14,2,4.14a3.42,3.42,0,0,0,1.29-.27h.68l.07,7.19a10.07,10.07,0,0,1-4.21.95c-5.43,0-6.18-3-6.58-6.31h-.55c-2.17,3.6-6.65,6.31-12.42,6.31C299.26,180.31,292.13,172.44,292.13,162.52Zm29.47-.27a10.73,10.73,0,0,0-10.8-10.79c-5.91,0-10.52,4.34-10.52,10.79A10.38,10.38,0,0,0,310.87,173,10.75,10.75,0,0,0,321.6,162.25Z"/><path class="b" d="M111.68,124a37.8,37.8,0,0,0-6.43,18.84,22.48,22.48,0,0,0,13.24-16.72A23.65,23.65,0,0,1,111.68,124Z"/><path class="b" d="M99.3,151.09a28.93,28.93,0,0,1-25.36-47,3.21,3.21,0,0,1,5,4,22.5,22.5,0,0,0,19.87,36.58,43.59,43.59,0,0,1,7.75-24.46c-8.17-8.55-13.95-24.43-43.5-36.75C36.65,72.33,23.31,56.77,17.36,47.64a34.82,34.82,0,0,0-6.78,19,50.21,50.21,0,0,0,.86,11.48c2.22,15.23,1,19.77-7.81,32.14a26.49,26.49,0,0,0-3.63,6c0,1.32,2,3,5.53,4.24a3.22,3.22,0,0,1,1.19,5.31c-2.28,2.28-5.56,5.72-3.22,8.13,0,0,.39.39.58.32a3.21,3.21,0,0,1,1.87,6c.54,2.13,4.56,1.9,7.52,5.28,4.76,5.4.84,12.85,2.83,16.68a5.63,5.63,0,0,0,4.82,2.35,23.35,23.35,0,0,0,7.59-1.77,140.08,140.08,0,0,0,34.2-16.85,3.22,3.22,0,1,1,3.7,5.21,105,105,0,0,1-11.8,7.27q2.5,7.54,0,21.95h59.25c-7.72-9.67-13.12-18.06-14.76-29.22Z"/><path class="b" d="M110.07,32.15c-6.2-1.53-12-2.69-17.54-3.76L96.62,22a7.22,7.22,0,1,0-4-2.6l-5.14,8C72.91,24.62,60.32,21.94,48,14.11A7.06,7.06,0,0,1,49.51,9.8C52.3,6.14,61.24,0,90,0c34.56,0,58.57,15.53,61.24,23.5a31.53,31.53,0,0,1,.39,15.08A187.43,187.43,0,0,1,110.07,32.15Z"/><path class="b" d="M34.37,28.93c3.24,2.69,13.42,10.84,25.78,19.66l-3,4.08A7.22,7.22,0,1,0,61,55.5l3-4.15c10,7,21.11,14.13,30.93,19h0c14.92,7.47,25.58,12.79,34.49,16l-5.27,6.3a7.22,7.22,0,1,0,3.67,3.08L134.39,88a49.34,49.34,0,0,0,11.2,2c1.87,4.5,4.83,15.11-3.37,23.5s-13.15,8.81-25.72,5.59c-10.57-2.79-12.41-25.71-51-41.79-24.08-10-39.32-25.49-45.75-38.35A25.44,25.44,0,0,1,34.37,28.93Z"/><path class="b" d="M114.56,72.89l6.28-8.61A7.22,7.22,0,1,0,117,61.45l-6.79,9.32c-3.75-1.85-7.82-3.88-12.28-6.12-21.83-11-51.15-33.92-58.67-40a9,9,0,0,1,5-5.14c19.65,12.6,39.13,12.6,64.3,19A189.81,189.81,0,0,0,151.9,45c6.46,24.2-2.48,35.71-5.28,38.57C138,83.25,128.7,79.69,114.56,72.89Z"/></svg>